<svg width="51" height="72" viewBox="0 0 51 72" fill="none" xmlns="http://www.w3.org/2000/svg">
    <path fill-rule="evenodd" clip-rule="evenodd" d="M26.107 35.2177C25.532 33.8521 24.1739 32.8346 20.9354 32.8346C17.7733 32.8346 14.1388 34.0096 9.9897 36.5952L9.08121 37.1614L5.37932 35.4193V3.08311L8.33152 0.868958L9.14242 0.988602C12.9365 1.54838 18.72 2.23673 26.5119 3.05368C34.3723 3.81432 38.7373 4.17627 39.8102 4.17627C40.3034 4.17627 40.6228 4.11938 40.813 4.05825C40.925 4.02223 40.9746 3.99087 40.9891 3.98016C41.2403 3.70113 41.6156 3.0252 41.9659 1.68239L42.4048 0L47.426 0.669507L47.2407 2.55927C46.7656 7.4054 46.2142 11.3263 45.5785 14.2931C45.2607 15.7762 44.9142 17.0572 44.5312 18.1138C44.158 19.1435 43.7055 20.0872 43.1181 20.7971L43.0896 20.8316C41.8949 22.21 40.3126 22.9253 38.489 22.9253C37.6504 22.9253 36.5119 22.7561 35.1734 22.4852C33.7998 22.2072 32.0923 21.7957 30.0608 21.2561C30.0595 21.2558 30.0582 21.2554 30.0568 21.2551L11.8895 16.5049L11.5641 29.1317C15.5069 27.4749 19.5783 26.6374 23.7666 26.6374C28.8016 26.6374 33.1203 27.2154 36.6624 28.4388C40.1545 29.5826 42.9955 31.246 45.0443 33.5144L45.0479 33.5183C48.727 37.6139 50.5532 42.5891 50.5532 48.3278C50.5532 55.5988 47.9034 61.5006 42.5533 65.8084C37.312 70.0153 30.2137 72 21.5016 72C16.689 72 12.2059 70.995 8.08213 68.9669L8.04928 68.9508C5.67774 67.7291 3.73 65.9958 2.22582 63.7754L2.20551 63.7454L2.18634 63.7147C0.715879 61.362 0 58.6983 0 55.7833C0 52.7639 0.836093 50.1142 2.64004 47.9965L2.66689 47.965C4.60245 45.7875 7.21402 44.7573 10.2711 44.7573C13.2136 44.7573 15.7817 45.4919 17.6981 47.2233C19.6617 48.8757 20.6365 51.1 20.6365 53.7071C20.6365 55.8966 20.3297 57.8823 19.652 59.6141L19.163 60.8638H16.2228C16.1477 61.3426 16.1066 61.8808 16.1066 62.4839C16.1066 63.2258 16.3936 64.0736 17.2254 65.0594C17.8207 65.7142 18.7862 66.1802 20.4635 66.1802C22.365 66.1802 23.5176 65.8874 24.1523 65.5271C24.9888 64.979 25.5666 64.3763 25.95 63.7373C26.3163 63.1269 26.7082 61.9594 27.0107 60.0352C27.3689 57.2724 27.5573 52.9501 27.5573 47.0065C27.5573 41.04 27.0077 37.2322 26.1243 35.2576L26.107 35.2177ZM28.9572 60.3133C28.6426 62.3266 28.2022 63.8052 27.636 64.7489C27.0697 65.6926 26.2518 66.5106 25.1822 67.2026C24.4297 67.6453 23.4281 67.9322 22.1774 68.0634C21.9597 68.0863 21.7344 68.1044 21.5016 68.1178C21.1708 68.1369 20.8248 68.1464 20.4635 68.1464C19.6944 68.1464 18.9944 68.0644 18.3635 67.9004C17.2911 67.6216 16.4182 67.1059 15.7448 66.3533C14.6752 65.0949 14.1404 63.8052 14.1404 62.4839C14.1404 61.0998 14.3292 59.9043 14.7067 58.8977H17.821C18.3873 57.4506 18.6704 55.7204 18.6704 53.7071C18.6704 51.6309 17.9154 49.9636 16.4054 48.7053C14.9583 47.384 12.9135 46.7234 10.2711 46.7234C7.69149 46.7234 5.64672 47.5728 4.13672 49.2715C2.68966 50.9702 1.96613 53.1409 1.96613 55.7833C1.96613 58.3629 2.59528 60.6593 3.8536 62.6727C5.17484 64.6231 6.87361 66.1331 8.94984 67.2026C11.7845 68.5967 14.8077 69.4759 18.0199 69.8404C18.8226 69.9314 19.6372 69.9904 20.4635 70.0172C20.8075 70.0283 21.1535 70.0339 21.5016 70.0339C21.7668 70.0339 22.0302 70.032 22.2917 70.0282C30.3462 69.9113 36.689 67.9942 41.3202 64.277C46.1648 60.3762 48.5871 55.0598 48.5871 48.3278C48.5871 43.0428 46.9198 38.5443 43.5852 34.8322C41.8236 32.8818 39.3069 31.3718 36.0353 30.3023C32.7636 29.1698 28.6741 28.6035 23.7666 28.6035C22.0725 28.6035 20.3971 28.7497 18.7404 29.0422C16.2886 29.4749 13.8779 30.228 11.5082 31.3012C11.1424 31.4669 10.7776 31.6402 10.4137 31.8212C10.1138 31.9703 9.81461 32.1246 9.51608 32.2841L9.98796 13.9755L30.5616 19.3548C34.5882 20.4244 37.2307 20.9592 38.489 20.9592C39.7474 20.9592 40.7854 20.4873 41.6034 19.5436C42.9788 17.8816 44.1193 12.9832 45.0249 4.8481C45.1074 4.1068 45.188 3.3385 45.2666 2.54345C45.2724 2.48521 45.2781 2.42682 45.2839 2.3683C45.2839 2.36801 45.2839 2.36858 45.2839 2.3683L43.8683 2.17868C43.8641 2.19497 43.8598 2.21121 43.8555 2.22739C43.6373 3.05422 43.3878 3.74581 43.1071 4.30218C42.9051 4.70246 42.687 5.03275 42.4528 5.29304C41.9494 5.85928 41.0686 6.14241 39.8102 6.14241C38.6148 6.14241 34.1163 5.76491 26.3147 5.00992C18.5131 4.192 12.6933 3.49993 8.85546 2.93368L7.34546 4.06617V34.1716L8.94984 34.9266C9.74468 34.4313 10.5279 33.9811 11.2995 33.5765C14.0213 32.1492 16.5988 31.2862 19.0319 30.9873C19.6765 30.9081 20.311 30.8685 20.9354 30.8685C24.5845 30.8685 26.9124 32.0639 27.9191 34.4547C28.9886 36.8455 29.5234 41.0295 29.5234 47.0065C29.5234 52.9836 29.3347 57.4192 28.9572 60.3133Z" fill="white" fill-opacity="0.9"/>
</svg>
