<svg width="53" height="72" viewBox="0 0 53 72" fill="none" xmlns="http://www.w3.org/2000/svg">
    <path fill-rule="evenodd" clip-rule="evenodd" d="M19.7437 4.36491C18.9942 4.7379 18.3816 5.26021 17.9059 5.93182C16.8989 7.37937 16.3954 8.76399 16.3954 10.0857C16.3954 11.4073 16.5842 12.5717 16.9618 13.5787H19.6996C20.2031 14.9003 20.4548 16.5052 20.4548 18.3934C20.4548 20.2185 19.6681 21.8234 18.0947 23.208C16.5212 24.5297 14.4443 25.1906 11.8639 25.1906C9.28349 25.1906 7.2695 24.3724 5.82197 22.736C4.43733 21.0367 3.74504 18.9283 3.74504 16.4108C3.74504 12.257 5.63314 8.82692 9.40936 6.12063C11.8804 4.30849 15.133 3.08929 19.1672 2.46299C20.4321 2.26661 21.774 2.12851 23.1926 2.04871C23.8974 2.00906 24.6213 1.98381 25.3641 1.97294C25.6446 1.96884 25.9277 1.96678 26.2136 1.96678C40.5632 1.96678 47.738 6.97028 47.738 16.9773C47.738 21.0682 46.0387 24.4668 42.6401 27.1731C40.3074 29.0217 37.2513 30.4855 33.4719 31.5646C31.851 32.0274 30.097 32.4194 28.2099 32.7406C28.2053 32.7414 28.2007 32.7422 28.1961 32.743V32.9318C28.2069 32.9326 28.2177 32.9334 28.2286 32.9342C30.1337 33.0734 31.9168 33.2878 33.5778 33.5773C38.7065 34.4711 42.6713 36.0811 45.4723 38.4073C49.1856 41.4913 51.0422 45.4878 51.0422 50.3969C51.0422 56.4388 48.5877 61.222 43.6786 64.7465C39.0772 68.093 32.7453 69.8507 24.6828 70.0197C24.2539 70.0287 23.82 70.0332 23.3814 70.0332C23.2552 70.0332 23.1293 70.0327 23.0038 70.0317C22.1632 70.0247 21.3362 69.9944 20.5229 69.9408C18.185 69.7867 15.9595 69.4399 13.8464 68.9004C10.9513 68.1451 8.33945 66.6661 6.01076 64.4633C3.74504 62.1976 2.61217 59.5227 2.61217 56.4388C2.61217 53.3549 3.33594 50.9633 4.78351 49.264C6.29398 47.5647 8.33945 46.715 10.9199 46.715C13.5003 46.715 15.5457 47.4073 17.0562 48.792C18.5667 50.1136 19.322 51.7185 19.322 53.6066C19.322 55.4318 19.0702 57.0052 18.5667 58.3269H15.6401C15.2625 59.3339 15.0737 60.3724 15.0737 61.4423C15.0737 65.2168 16.9597 67.3972 20.7317 67.9834C21.4253 68.0912 22.1827 68.1451 23.0038 68.1451C23.131 68.1451 23.2569 68.1434 23.3814 68.1401C23.7849 68.1293 24.1737 68.101 24.5478 68.0553C27.4239 67.7033 29.4267 66.3172 30.5562 63.8969C31.9408 61.0647 32.6331 56.9738 32.6331 51.6241C32.6331 46.2745 31.9723 42.4038 30.6506 40.0122C29.3919 37.5577 27.5038 35.701 24.9863 34.4423C22.7206 34.9458 19.9828 35.3549 16.773 35.6696L16.4898 33.5927C17.1693 33.5232 17.82 33.4423 18.4417 33.3501C22.8874 32.6905 25.8556 31.4497 27.3464 29.6276C29.1087 27.5507 29.9898 23.8689 29.9898 18.5822C29.9898 13.2325 29.4548 9.42483 28.3849 7.15909C27.6622 5.48799 26.5668 4.41649 25.0987 3.9446C24.5211 3.75892 23.8857 3.66609 23.1926 3.66609C21.8294 3.66609 20.6798 3.89902 19.7437 4.36491ZM24.6949 36.5157C22.4822 36.9704 19.902 37.339 16.9649 37.627L15.0801 37.8118L14.2662 31.843L16.2897 31.6361C18.9619 31.3628 21.078 30.9154 22.6831 30.3291C24.2974 29.7396 25.2747 29.0538 25.8242 28.3822L25.8465 28.355C27.13 26.8423 28.023 23.7806 28.023 18.5822C28.023 13.2662 27.4763 9.84094 26.6064 7.99892L26.5926 7.96955L26.5797 7.93973C26.1931 7.04577 25.725 6.50171 25.2337 6.17122C24.7469 5.8437 24.0994 5.63287 23.1926 5.63287C21.1528 5.63287 20.1027 6.23757 19.5154 7.06227C18.6661 8.28528 18.3622 9.2816 18.3622 10.0857C18.3622 10.6451 18.4015 11.1525 18.4746 11.6119H21.055L21.5375 12.8785C22.1495 14.4848 22.4216 16.3414 22.4216 18.3934C22.4216 20.8704 21.322 22.9879 19.394 24.6845L19.36 24.7144C17.3491 26.4036 14.7854 27.1573 11.8639 27.1573C8.83204 27.1573 6.23798 26.1747 4.34883 24.0392L4.32242 24.0093L4.29724 23.9784C2.58495 21.8769 1.77826 19.3102 1.77826 16.4108C1.77826 11.5437 4.03996 7.55198 8.25575 4.52768C12.5148 1.40886 18.6015 0 26.2136 0C33.5565 0 39.4139 1.26923 43.4819 4.10616C47.6789 7.033 49.7048 11.4378 49.7048 16.9773C49.7048 21.7088 47.699 25.6589 43.8653 28.7116L43.8617 28.7145C42.0263 30.169 39.825 31.3801 37.2805 32.3656C41.1023 33.365 44.2741 34.8556 46.7289 36.8943C50.9009 40.3592 53.009 44.9144 53.009 50.3969C53.009 57.07 50.2513 62.4463 44.8317 66.3398C39.5291 70.1946 32.3009 72 23.3814 72C19.837 72 16.4937 71.6061 13.3599 70.806L13.35 70.8035C10.1117 69.9587 7.21074 68.3057 4.6592 65.8921L4.6195 65.8546C2.00097 63.236 0.645386 60.0666 0.645386 56.4388C0.645386 53.0652 1.43746 50.159 3.2863 47.9886L3.31316 47.957C5.24936 45.7788 7.8618 44.7483 10.9199 44.7483C13.8514 44.7483 16.4104 45.5406 18.3687 47.327C20.2645 48.9932 21.2887 51.1197 21.2887 53.6066C21.2887 55.6049 21.0141 57.4274 20.4047 59.0271L19.9221 60.2937H17.1362C17.0723 60.6712 17.0405 61.0537 17.0405 61.4423C17.0405 63.2787 17.568 64.3268 18.3258 64.9673C19.147 65.6614 20.5904 66.1783 23.0038 66.1783C24.6169 66.1783 25.8207 65.8705 26.7126 65.3688C27.5834 64.879 28.2719 64.141 28.774 63.0651L28.789 63.0329C29.9807 60.5954 30.6663 56.8558 30.6663 51.6241C30.6663 46.3454 29.9986 42.8985 28.9292 40.9635L28.9145 40.9368L28.9005 40.9097C27.9364 39.0296 26.5485 37.5729 24.6949 36.5157Z" fill="white" fill-opacity="0.9"/>
</svg>
