<svg width="51" height="72" viewBox="0 0 51 72" fill="none" xmlns="http://www.w3.org/2000/svg">
    <path fill-rule="evenodd" clip-rule="evenodd" d="M24.5397 1.99397C31.7649 2.03713 37.3228 3.40791 41.2135 6.10628C45.2312 8.84854 47.24 12.9619 47.24 18.4464C47.24 20.2321 47.0806 21.8583 46.7617 23.3251C46.4429 24.7281 45.7095 26.2267 44.5616 27.8211C43.4774 29.3516 42.3933 30.7228 41.3091 31.9345C40.2887 33.1461 38.5031 34.7405 35.9522 36.7174C32.1258 39.7786 28.1081 42.8397 23.899 45.9008C19.69 48.8981 17.2347 50.6519 16.5332 51.1621L10.698 55.3711H33.6563C38.0567 55.3711 41.1816 54.4145 43.031 52.5013C44.5642 50.9153 45.7248 48.5842 46.5129 45.508C46.6755 44.8735 46.8222 44.2072 46.9531 43.5093H48.5792L47.6227 70.0071H2.66253V58.9105L12.3242 50.0142C18.8928 44.0195 23.5483 38.6944 26.2905 34.039C29.0328 29.3198 30.4039 24.1541 30.4039 18.5421C30.4039 12.8663 29.798 9.00797 28.5864 6.96723C27.6605 5.3591 26.2505 4.36539 24.3565 3.98608C24.3001 3.97478 24.2433 3.96404 24.186 3.95384C23.6497 3.85825 23.0757 3.81045 22.4641 3.81045C21.2076 3.81045 20.1161 3.95106 19.1896 4.23227C18.0002 4.5933 17.0828 5.18609 16.4376 6.01063C15.2896 7.47741 14.7157 8.88043 14.7157 10.2197C14.7157 11.5589 14.907 12.7387 15.2896 13.7591H18.1594C18.6696 15.0983 18.9247 16.7245 18.9247 18.6377C18.9247 20.4872 18.1275 22.1134 16.5332 23.5164C14.9389 24.8556 12.8344 25.5252 10.2197 25.5252C7.60496 25.5252 5.56422 24.6962 4.09743 23.0381C2.69442 21.3162 1.99291 19.1798 1.99291 16.6289C1.99291 12.3561 3.84234 8.84854 7.54119 6.10628C10.2808 4.07516 14.0351 2.79624 18.804 2.26953C19.964 2.14141 21.184 2.05779 22.4641 2.01868C23.0265 2.0015 23.6005 1.99291 24.186 1.99291C24.3043 1.99291 24.4223 1.99327 24.5397 1.99397ZM16.8226 11.7662H19.5329L20.0218 13.0496C20.6419 14.6773 20.9176 16.5585 20.9176 18.6377C20.9176 21.1477 19.8034 23.2933 17.8498 25.0125L17.8154 25.0428C15.7777 26.7544 13.18 27.5182 10.2197 27.5182C7.14751 27.5182 4.51899 26.5225 2.60475 24.3585L2.57798 24.3283L2.55245 24.297C0.817427 22.1676 0 19.5667 0 16.6289C0 11.67 2.1942 7.58956 6.35429 4.50536C10.5488 1.39567 16.6002 0 24.186 0C31.7826 0 37.9208 1.39999 42.3431 4.46444C46.9768 7.63 49.2329 12.4039 49.2329 18.4464C49.2329 20.3485 49.0633 22.1193 48.7092 23.7484L48.7052 23.7668C48.3102 25.5044 47.4315 27.2446 46.1835 28.9792C45.0699 30.5508 43.9471 31.9731 42.8137 33.2416C41.6508 34.616 39.7369 36.305 37.185 38.2834C33.337 41.3614 29.299 44.4378 25.0712 47.5125L25.0551 47.5242C20.841 50.5252 18.3966 52.2711 17.7054 52.7738L17.6991 52.7784L16.8675 53.3782H33.6563C37.8532 53.3782 40.3071 52.4518 41.5981 51.1162C43.0638 49.6 44.2637 47.0384 44.9943 43.142L45.2991 41.5164H50.6454L49.5449 72H0.669619V58.0365L10.9807 48.5421C17.4817 42.6092 21.9724 37.4411 24.5703 33.0327C27.1288 28.6278 28.411 23.8108 28.411 18.5421C28.411 15.7657 28.2622 13.4931 27.9807 11.7006C27.695 9.88106 27.2924 8.69152 26.8727 7.98468L26.8591 7.96171C26.0737 6.59761 24.7749 5.80336 22.4641 5.80336C19.87 5.80336 18.6092 6.46936 18.007 7.23888C17.028 8.48975 16.7086 9.47089 16.7086 10.2197C16.7086 10.7866 16.7485 11.3006 16.8226 11.7662Z" fill="white" fill-opacity="0.9"/>
</svg>
