<svg xmlns="http://www.w3.org/2000/svg" width="35.474" height="45.894" viewBox="0 0 35.474 45.894">
  <path id="Path_1001" data-name="Path 1001" d="M19.737,11.678a3.808,3.808,0,0,0,3.719-3.893,3.834,3.834,0,0,0-.539-2L21.5,3.2,19.737,0,17.1,4.8l-.54.981a3.834,3.834,0,0,0-.539,2A3.82,3.82,0,0,0,19.737,11.678Zm8.554,19.444L26.3,29.039l-2.008,2.083a6.379,6.379,0,0,1-9.094,0l-1.99-2.083-2.027,2.083A6.206,6.206,0,0,1,3,31.9v8.973A1.91,1.91,0,0,0,4.86,42.82H34.614a1.91,1.91,0,0,0,1.86-1.946V31.9a6.206,6.206,0,0,1-8.183-.779Zm2.6-13.6H21.6V13.624H17.877v3.893h-9.3A5.706,5.706,0,0,0,3,23.356v3a3.739,3.739,0,0,0,3.645,3.815,3.49,3.49,0,0,0,2.566-1.109l3.98-4.146,3.961,4.146a3.611,3.611,0,0,0,5.151,0l3.98-4.146,3.961,4.146a3.521,3.521,0,0,0,2.566,1.109,3.739,3.739,0,0,0,3.645-3.815v-3A5.679,5.679,0,0,0,30.9,17.517Z" transform="translate(-2 2.075)" fill="none" stroke="#f24464" stroke-width="2"/>
</svg>