<svg xmlns="http://www.w3.org/2000/svg" width="39.572" height="37.465" viewBox="0 0 39.572 37.465">
  <g id="Group_8" data-name="Group 8" transform="translate(-286.531 -412.88)">
    <ellipse id="Ellipse_1" data-name="Ellipse 1" cx="13.018" cy="11.754" rx="13.018" ry="11.754" transform="translate(293.476 419.777)" fill="#161615"/>
    <path id="Path_22" data-name="Path 22" d="M295.094,412.88H317.24a11.139,11.139,0,0,1,3.691.37c2.087.74,4.9,2.479,5.061,5.271.217,3.841.055,18.952.011,22.771a8.912,8.912,0,0,1-.295,2.222c-.594,2.2-2.08,5.984-6.656,6.544-4.969.609-19.556.062-24.036.015a10.406,10.406,0,0,1-4.61-1.039,6.213,6.213,0,0,1-3.655-5.081c-.5-5.41,0-23.421,0-23.421S286.916,413.342,295.094,412.88Z" transform="translate(0 0)" fill="#161615"/>
    <circle id="Ellipse_2" data-name="Ellipse 2" cx="6.916" cy="6.916" r="6.916" transform="translate(299.613 424.569)" fill="#fff"/>
    <circle id="Ellipse_3" data-name="Ellipse 3" cx="2.877" cy="2.877" r="2.877" transform="translate(317.001 416.144)" fill="#fff"/>
  </g>
</svg>