<svg xmlns="http://www.w3.org/2000/svg" width="53.068" height="27.534" viewBox="0 0 53.068 27.534">
  <g id="Group_308" data-name="Group 308" transform="translate(-312 -58.295)">
    <path id="Path_1002" data-name="Path 1002" d="M25.534,20.363a22.578,22.578,0,0,1,9.022,1.915A6.35,6.35,0,0,1,38.3,28.087v3.447H12.767V28.108A6.306,6.306,0,0,1,16.512,22.3,22.216,22.216,0,0,1,25.534,20.363Zm-17.023.532a4.256,4.256,0,1,0-4.256-4.256A4.268,4.268,0,0,0,8.511,20.895Zm2.4,2.341a14.858,14.858,0,0,0-2.4-.213A14.79,14.79,0,0,0,2.6,24.257,4.279,4.279,0,0,0,0,28.193v3.341H9.575V28.108A9.572,9.572,0,0,1,10.916,23.236Zm31.641-2.341A4.256,4.256,0,1,0,38.3,16.639,4.268,4.268,0,0,0,42.557,20.895Zm8.511,7.3a4.279,4.279,0,0,0-2.6-3.937,14.466,14.466,0,0,0-8.32-1.021,9.573,9.573,0,0,1,1.341,4.873v3.426h9.575ZM25.534,6a6.384,6.384,0,1,1-6.384,6.384A6.375,6.375,0,0,1,25.534,6Z" transform="translate(313 53.295)" fill="none" stroke="#296ca6" stroke-width="2"/>
  </g>
</svg>