<svg xmlns="http://www.w3.org/2000/svg" width="47.036" height="32.416" viewBox="0 0 47.036 32.416">
  <g id="icon_youtube" data-name="icon youtube" transform="translate(-275.482 -2032.281)">
    <path id="Path_17" data-name="Path 17" d="M282.934,534.391H270.508s-4.994-.5-7.866,2.382a8.122,8.122,0,0,0-2.607,5.949l.108,9.015,22.936-.242Z" transform="translate(15.454 1497.924)" fill="#161615"/>
    <path id="Path_18" data-name="Path 18" d="M269.1,558.23h14.364s5.772.5,9.093-2.382,2.886-5.917,2.886-5.917v-9.045l-26.511.24Z" transform="translate(27.057 1506.433)" fill="#161615"/>
    <path id="Path_19" data-name="Path 19" d="M269.1,534.391h14.352s5.77-.5,9.089,2.382,2.884,5.919,2.884,5.919v9.045l-26.493-.242Z" transform="translate(27.062 1497.924)" fill="#161615"/>
    <path id="Path_20" data-name="Path 20" d="M286.414,558.23H272.062s-5.77.5-9.087-2.382-2.886-5.917-2.886-5.917v-9.045l26.493.24Z" transform="translate(15.509 1506.433)" fill="#161615"/>
    <path id="Path_21" data-name="Path 21" d="M268.193,538.59v12.9l11.988-6.452Z" transform="translate(26.095 1503.441)" fill="#fff"/>
  </g>
</svg>