<svg xmlns="http://www.w3.org/2000/svg" width="36.627" height="46.331" viewBox="0 0 36.627 46.331">
  <g id="Group_29" data-name="Group 29" transform="translate(-132.048 -286.153)">
    <path id="Path_1006" data-name="Path 1006" d="M151.864,289.645l13.618-9.285s.847-.526,1.646.525a3.459,3.459,0,0,1,.423,2.6L154.8,296.01l-.259.409v5.926l9.008-5.488s1.576-.613,2.117.642a2.432,2.432,0,0,1,.024,2.6,2.668,2.668,0,0,1-1.176,1.051L151.041,309.5l-.1.146-.039,12.76s-.447,2.072-1.669,2.072-1.9-1.518-1.9-1.518l-.118-26.512L134.6,294.113a2.743,2.743,0,0,1-1.552-2.686c0-2.1,2.446-1.986,2.446-1.986Z" transform="translate(0 7.006)" fill="none" stroke="#f29f05" stroke-miterlimit="10" stroke-width="2"/>
    <circle id="Ellipse_13" data-name="Ellipse 13" cx="3.892" cy="3.892" r="3.892" transform="translate(154.334 316.034)" fill="none" stroke="#f29f05" stroke-miterlimit="10" stroke-width="2"/>
  </g>
</svg>