<svg id="call" xmlns="http://www.w3.org/2000/svg" width="29.377" height="29.377" viewBox="0 0 29.377 29.377">
  <path id="Path_1100" data-name="Path 1100" d="M0,0H29.377V29.377H0Z" fill="none"/>
  <path id="Path_1101" data-name="Path 1101" d="M23.821,18.153a14.006,14.006,0,0,1-4.321-.685,1.2,1.2,0,0,0-1.236.294l-1.922,2.411a18.585,18.585,0,0,1-8.434-8.36L10.3,9.781a1.249,1.249,0,0,0,.294-1.249A13.651,13.651,0,0,1,9.9,4.212,1.223,1.223,0,0,0,8.692,3H4.457C3.8,3,3,3.294,3,4.212A21,21,0,0,0,23.821,25.032a1.284,1.284,0,0,0,1.212-1.444V19.365A1.223,1.223,0,0,0,23.821,18.153Z" transform="translate(0.672 0.672)"/>
</svg>
